<?xml version="1.0" standalone="no"?>
<!DOCTYPE svg PUBLIC "-//W3C//DTD SVG 20010904//EN"
 "http://www.w3.org/TR/2001/REC-SVG-20010904/DTD/svg10.dtd">
<svg version="1.0" xmlns="http://www.w3.org/2000/svg"
 width="532.000000pt" height="532.000000pt" viewBox="0 0 532.000000 532.000000"
 preserveAspectRatio="xMidYMid meet">
<metadata>
Created by potrace 1.14, written by Peter Selinger 2001-2017
</metadata>
<g transform="translate(0.000000,532.000000) scale(0.100000,-0.100000)"
fill="#000000" stroke="none">
<path d="M488 3775 c0 0 -2 -472 -3 -1048 l-1 -1048 425 2 c448 2 541 9 676
50 113 34 210 82 293 144 22 16 155 149 175 173 9 12 17 27 17 32 0 6 5 10 10
10 6 0 10 4 10 10 0 5 13 32 30 60 16 27 27 50 24 50 -4 0 1 11 9 23 20 31 64
178 73 242 3 28 9 54 11 59 3 4 7 74 8 155 6 286 -45 489 -170 682 -49 76
-166 196 -219 224 -20 11 -36 23 -36 27 0 5 -7 8 -15 8 -8 0 -15 4 -15 9 0 8
-37 24 -52 22 -5 -1 -8 4 -8 10 0 5 -4 8 -9 4 -5 -3 -12 -1 -16 5 -3 5 -38 19
-78 30 -40 12 -79 24 -87 27 -17 7 -26 9 -90 19 -25 4 -52 9 -60 11 -11 3
-889 11 -902 8z m847 -389 c158 -19 297 -100 371 -217 38 -61 71 -154 87 -249
14 -84 16 -301 3 -370 -6 -35 -18 -90 -22 -100 0 -3 -5 -20 -9 -38 -4 -18 -12
-35 -16 -38 -5 -3 -9 -14 -9 -25 0 -10 -3 -19 -8 -19 -4 0 -13 -14 -21 -32
-17 -39 -92 -117 -146 -151 -22 -14 -76 -38 -120 -53 -78 -27 -87 -28 -300
-28 l-220 -1 0 660 c-1 363 3 662 7 666 11 7 329 3 403 -5z"/>
<path d="M2539 3670 c0 -97 0 -649 1 -677 0 -10 38 -13 155 -13 l155 0 -2 397
-3 397 -152 1 -153 0 -1 -105z"/>
<path d="M3183 3767 c-4 -7 -7 -1862 -4 -2060 l1 -28 423 2 c445 1 535 8 682
51 39 11 91 31 117 44 26 13 54 24 62 24 8 0 16 3 18 8 2 4 28 24 60 45 88 61
191 166 232 238 11 19 22 36 25 39 12 10 80 161 86 189 2 9 8 28 14 44 6 15 8
27 6 27 -2 0 -1 10 4 23 5 12 11 42 15 67 3 25 8 56 11 70 8 36 9 309 2 345
-4 17 -9 50 -12 75 -18 150 -108 356 -211 479 -99 119 -244 215 -401 266 -82
26 -100 31 -163 40 -20 3 -47 8 -60 11 -44 10 -901 11 -907 1z m851 -381 c27
-4 53 -9 56 -11 4 -2 20 -7 37 -9 29 -6 99 -35 138 -59 11 -6 46 -38 77 -70
109 -111 162 -279 161 -510 -1 -62 -11 -181 -18 -216 -3 -11 -7 -30 -10 -42
-15 -70 -57 -166 -89 -207 -123 -153 -257 -200 -577 -202 l-189 -1 0 669 0
668 183 -2 c100 -1 204 -4 231 -8z"/>
</g>
</svg>
